<svg xmlns="http://www.w3.org/2000/svg" viewBox="0 0 640 360" role="img" aria-label="Farm equipment dealership illustration">
  <rect width="640" height="360" fill="#F4F4F5"/>
  <rect y="300" width="640" height="60" fill="#E4E4E7"/>
  <ellipse cx="320" cy="298" rx="250" ry="14" fill="#D4D4D8" opacity="0.6"/>
  <rect x="90" y="150" width="460" height="150" fill="#065F46"/>
  <rect x="90" y="130" width="460" height="20" fill="#18181B"/>
  <path d="M150 130 L166 98 L182 130 Z" fill="#FDE68A"/>
  <path d="M198 130 L214 98 L230 130 Z" fill="#FCA5A5"/>
  <path d="M246 130 L262 98 L278 130 Z" fill="#FDE68A"/>
  <rect x="350" y="170" width="150" height="110" rx="6" fill="#3F3F46"/>
  <rect x="362" y="182" width="126" height="86" fill="#18181B"/>
  <rect x="110" y="184" width="60" height="96" rx="4" fill="#ECFDF5" opacity="0.85"/>
  <rect x="185" y="184" width="60" height="96" rx="4" fill="#ECFDF5" opacity="0.85"/>
  <rect x="210" y="234" width="140" height="36" rx="6" fill="#065F46"/>
  <rect x="212" y="200" width="10" height="40" fill="#18181B"/>
  <path d="M280 238 L340 238 L340 278 L292 278 Z" fill="#047857"/>
  <rect x="302" y="248" width="30" height="22" rx="4" fill="#ECFDF5" opacity="0.9"/>
  <rect x="230" y="264" width="130" height="14" rx="4" fill="#047857"/>
  <circle cx="256" cy="290" r="24" fill="#18181B"/>
  <circle cx="256" cy="290" r="10" fill="#FAFAFA"/>
  <circle cx="368" cy="284" r="38" fill="#18181B"/>
  <circle cx="368" cy="284" r="17" fill="#FAFAFA"/>
  <circle cx="368" cy="284" r="6" fill="#18181B"/>
</svg>
